<?xml version="1.0" encoding="UTF-8" standalone="no"?>
<!DOCTYPE svg PUBLIC "-//W3C//DTD SVG 1.1//EN"
 "http://www.w3.org/Graphics/SVG/1.1/DTD/svg11.dtd">
<!-- Generated by graphviz version 2.38.0 (20140413.2041)
 -->
<!-- Title: %3 Pages: 1 -->
<svg width="660pt" height="519pt"
 viewBox="0.00 0.00 660.30 518.61" xmlns="http://www.w3.org/2000/svg" xmlns:xlink="http://www.w3.org/1999/xlink">
<g id="graph0" class="graph" transform="scale(1 1) rotate(0) translate(4 514.608)">
<title>%3</title>
<polygon fill="white" stroke="none" points="-4,4 -4,-514.608 656.304,-514.608 656.304,4 -4,4"/>
<!-- CEN.Northeast -->
<g id="node1" class="node"><title>CEN.Northeast</title>
<polygon fill="#ccffcc" stroke="black" points="348,-487.853 241,-487.853 241,-451.853 348,-451.853 348,-487.853"/>
<text text-anchor="middle" x="294.5" y="-466.153" font-family="Helvetica,sans-Serif" font-size="14.00">CEN.Northeast</text>
</g>
<!-- TZ.Eastern -->
<g id="node7" class="node"><title>TZ.Eastern</title>
<polygon fill="#ffffcc" stroke="black" points="516.705,-339.397 516.705,-354.309 482.565,-364.853 434.284,-364.853 400.145,-354.309 400.145,-339.397 434.284,-328.853 482.565,-328.853 516.705,-339.397"/>
<text text-anchor="middle" x="458.425" y="-343.153" font-family="Helvetica,sans-Serif" font-size="14.00">TZ.Eastern</text>
</g>
<!-- CEN.Northeast&#45;&gt;TZ.Eastern -->
<g id="edge13" class="edge"><title>CEN.Northeast&#45;&gt;TZ.Eastern</title>
<path fill="none" stroke="#000000" d="M348.142,-452.603C357.479,-448.462 366.822,-443.554 375,-437.853 400.4,-420.149 423.511,-393.24 438.754,-373.271"/>
<polygon fill="#000000" stroke="#000000" points="441.613,-375.292 444.789,-365.184 436.003,-371.105 441.613,-375.292"/>
<text text-anchor="middle" x="370.5" y="-446.653" font-family="Times,serif" font-size="14.00">&lt;</text>
</g>
<!-- CEN.Midwest -->
<g id="node2" class="node"><title>CEN.Midwest</title>
<polygon fill="#ccffcc" stroke="black" points="344,-415.853 245,-415.853 245,-379.853 344,-379.853 344,-415.853"/>
<text text-anchor="middle" x="294.5" y="-394.153" font-family="Helvetica,sans-Serif" font-size="14.00">CEN.Midwest</text>
</g>
<!-- CEN.Midwest&#45;&gt;TZ.Eastern -->
<g id="edge18" class="edge"><title>CEN.Midwest&#45;&gt;TZ.Eastern</title>
<path fill="none" stroke="#000000" d="M333.246,-415.872C346.635,-419.918 361.679,-421.746 375,-416.853 399.08,-408.008 420.936,-388.663 436.083,-372.546"/>
<polygon fill="#000000" stroke="#000000" points="438.841,-374.715 442.96,-364.954 433.652,-370.016 438.841,-374.715"/>
<text text-anchor="middle" x="370.5" y="-422.653" font-family="Times,serif" font-size="14.00">o</text>
</g>
<!-- TZ.Mountain -->
<g id="node8" class="node"><title>TZ.Mountain</title>
<polygon fill="#ffffcc" stroke="black" points="523.774,-186.397 523.774,-201.309 485.494,-211.853 431.356,-211.853 393.075,-201.309 393.075,-186.397 431.356,-175.853 485.494,-175.853 523.774,-186.397"/>
<text text-anchor="middle" x="458.425" y="-190.153" font-family="Helvetica,sans-Serif" font-size="14.00">TZ.Mountain</text>
</g>
<!-- CEN.Midwest&#45;&gt;TZ.Mountain -->
<g id="edge14" class="edge"><title>CEN.Midwest&#45;&gt;TZ.Mountain</title>
<path fill="none" stroke="#000000" d="M301.545,-379.543C311.544,-351.279 333.683,-296.371 366,-258.853 380.504,-242.016 400.242,-227.274 417.667,-216.105"/>
<polygon fill="#000000" stroke="#000000" points="419.883,-218.849 426.529,-210.598 416.188,-212.904 419.883,-218.849"/>
<text text-anchor="middle" x="370.5" y="-262.653" font-family="Times,serif" font-size="14.00">o</text>
</g>
<!-- TZ.Pacific -->
<g id="node9" class="node"><title>TZ.Pacific</title>
<polygon fill="#ffffcc" stroke="black" points="512.763,-288.397 512.763,-303.309 480.932,-313.853 435.917,-313.853 404.086,-303.309 404.086,-288.397 435.917,-277.853 480.932,-277.853 512.763,-288.397"/>
<text text-anchor="middle" x="458.425" y="-292.153" font-family="Helvetica,sans-Serif" font-size="14.00">TZ.Pacific</text>
</g>
<!-- CEN.Midwest&#45;&gt;TZ.Pacific -->
<g id="edge17" class="edge"><title>CEN.Midwest&#45;&gt;TZ.Pacific</title>
<path fill="none" stroke="#000000" d="M344.271,-385.441C355.447,-380.764 366.52,-374.416 375,-365.853 390.448,-350.255 377.35,-335.249 393,-319.853 396.435,-316.474 400.39,-313.563 404.614,-311.058"/>
<polygon fill="#000000" stroke="#000000" points="406.278,-314.138 413.583,-306.464 403.087,-307.907 406.278,-314.138"/>
<text text-anchor="middle" x="370.5" y="-377.653" font-family="Times,serif" font-size="14.00">!</text>
</g>
<!-- CEN.South -->
<g id="node3" class="node"><title>CEN.South</title>
<polygon fill="#ccffcc" stroke="black" points="336.5,-211.853 252.5,-211.853 252.5,-175.853 336.5,-175.853 336.5,-211.853"/>
<text text-anchor="middle" x="294.5" y="-190.153" font-family="Helvetica,sans-Serif" font-size="14.00">CEN.South</text>
</g>
<!-- CEN.South&#45;&gt;TZ.Eastern -->
<g id="edge19" class="edge"><title>CEN.South&#45;&gt;TZ.Eastern</title>
<path fill="none" stroke="#000000" d="M301.527,-212.149C311.105,-238.494 332.247,-286.998 366,-314.853 375.62,-322.793 387.34,-328.818 399.136,-333.371"/>
<polygon fill="#000000" stroke="#000000" points="397.979,-336.674 408.574,-336.716 400.318,-330.076 397.979,-336.674"/>
<text text-anchor="middle" x="370.5" y="-325.653" font-family="Times,serif" font-size="14.00">o</text>
</g>
<!-- CEN.South&#45;&gt;TZ.Mountain -->
<g id="edge12" class="edge"><title>CEN.South&#45;&gt;TZ.Mountain</title>
<path fill="none" stroke="#000000" d="M322.388,-175.811C335.046,-168.374 350.7,-160.624 366,-156.853 386.528,-151.794 408.523,-160.223 425.794,-170.305"/>
<polygon fill="#000000" stroke="#000000" points="424.028,-173.329 434.362,-175.666 427.741,-167.395 424.028,-173.329"/>
<text text-anchor="middle" x="370.5" y="-160.653" font-family="Times,serif" font-size="14.00">o</text>
</g>
<!-- CEN.South&#45;&gt;TZ.Pacific -->
<g id="edge15" class="edge"><title>CEN.South&#45;&gt;TZ.Pacific</title>
<path fill="none" stroke="#000000" d="M336.798,-196.042C349.619,-198.028 363.415,-201.581 375,-207.853 389.408,-215.654 417.016,-246.82 436.293,-269.859"/>
<polygon fill="#000000" stroke="#000000" points="433.651,-272.155 442.729,-277.618 439.038,-267.686 433.651,-272.155"/>
<text text-anchor="middle" x="370.5" y="-211.653" font-family="Times,serif" font-size="14.00">!</text>
</g>
<!-- TZ.Central -->
<g id="node10" class="node"><title>TZ.Central</title>
<polygon fill="#ffffcc" stroke="black" points="514.484,-84.3975 514.484,-99.3092 481.645,-109.853 435.204,-109.853 402.365,-99.3092 402.365,-84.3975 435.204,-73.8533 481.645,-73.8533 514.484,-84.3975"/>
<text text-anchor="middle" x="458.425" y="-88.1533" font-family="Helvetica,sans-Serif" font-size="14.00">TZ.Central</text>
</g>
<!-- CEN.South&#45;&gt;TZ.Central -->
<g id="edge16" class="edge"><title>CEN.South&#45;&gt;TZ.Central</title>
<path fill="none" stroke="#000000" d="M315.56,-175.62C329.193,-163.747 347.963,-148.38 366,-136.853 381.061,-127.229 398.473,-118.192 414.036,-110.778"/>
<polygon fill="#000000" stroke="#000000" points="415.87,-113.784 423.449,-106.381 412.907,-107.442 415.87,-113.784"/>
<text text-anchor="middle" x="370.5" y="-140.653" font-family="Times,serif" font-size="14.00">o</text>
</g>
<!-- CEN.USA -->
<g id="node4" class="node"><title>CEN.USA</title>
<polygon fill="#ccffcc" stroke="black" points="204,-415.853 127,-415.853 127,-379.853 204,-379.853 204,-415.853"/>
<text text-anchor="middle" x="165.5" y="-394.153" font-family="Helvetica,sans-Serif" font-size="14.00">CEN.USA</text>
</g>
<!-- CEN.USA&#45;&gt;CEN.Northeast -->
<g id="edge3" class="edge"><title>CEN.USA&#45;&gt;CEN.Northeast</title>
<path fill="none" stroke="#000000" d="M207.428,-421.057C224.933,-430.981 245.07,-442.397 261.463,-451.69"/>
<polygon fill="#000000" stroke="#000000" points="208.973,-417.909 198.547,-416.022 205.521,-423.999 208.973,-417.909"/>
</g>
<!-- CEN.USA&#45;&gt;CEN.Midwest -->
<g id="edge1" class="edge"><title>CEN.USA&#45;&gt;CEN.Midwest</title>
<path fill="none" stroke="#000000" d="M214.387,-397.853C224.336,-397.853 234.831,-397.853 244.808,-397.853"/>
<polygon fill="#000000" stroke="#000000" points="214.26,-394.353 204.26,-397.853 214.26,-401.353 214.26,-394.353"/>
</g>
<!-- CEN.USA&#45;&gt;CEN.South -->
<g id="edge4" class="edge"><title>CEN.USA&#45;&gt;CEN.South</title>
<path fill="none" stroke="#000000" d="M183.144,-371.118C209.418,-328.914 259.823,-247.949 282.255,-211.916"/>
<polygon fill="#000000" stroke="#000000" points="180.084,-369.411 177.77,-379.75 186.027,-373.11 180.084,-369.411"/>
</g>
<!-- CEN.West -->
<g id="node5" class="node"><title>CEN.West</title>
<polygon fill="#ccffcc" stroke="black" points="334.5,-114.853 254.5,-114.853 254.5,-78.8533 334.5,-78.8533 334.5,-114.853"/>
<text text-anchor="middle" x="294.5" y="-93.1533" font-family="Helvetica,sans-Serif" font-size="14.00">CEN.West</text>
</g>
<!-- CEN.USA&#45;&gt;CEN.West -->
<g id="edge2" class="edge"><title>CEN.USA&#45;&gt;CEN.West</title>
<path fill="none" stroke="#000000" d="M172.367,-369.821C182.404,-325.142 205.307,-235.793 241,-166.853 250.848,-147.832 265.774,-128.529 277.197,-115.024"/>
<polygon fill="#000000" stroke="#000000" points="168.93,-369.154 170.201,-379.672 175.767,-370.657 168.93,-369.154"/>
</g>
<!-- TZ.USA -->
<g id="node6" class="node"><title>TZ.USA</title>
<polygon fill="#ffffcc" stroke="black" points="652.532,-288.397 652.532,-303.309 625.612,-313.853 587.541,-313.853 560.621,-303.309 560.621,-288.397 587.541,-277.853 625.612,-277.853 652.532,-288.397"/>
<text text-anchor="middle" x="606.577" y="-292.153" font-family="Helvetica,sans-Serif" font-size="14.00">TZ.USA</text>
</g>
<!-- CEN.USA&#45;&gt;TZ.USA -->
<g id="edge20" class="edge"><title>CEN.USA&#45;&gt;TZ.USA</title>
<path fill="none" stroke="#000000" d="M173.855,-415.863C184.615,-439.496 207.125,-479.95 241,-496.853 283.552,-518.086 302.642,-511.142 348,-496.853 451.35,-464.296 543.885,-368.405 584.197,-321.829"/>
<polygon fill="#000000" stroke="#000000" points="587.052,-323.875 590.884,-313.998 581.729,-319.33 587.052,-323.875"/>
<text text-anchor="middle" x="370.5" y="-493.653" font-family="Times,serif" font-size="14.00">=</text>
</g>
<!-- CEN.West&#45;&gt;TZ.Eastern -->
<g id="edge9" class="edge"><title>CEN.West&#45;&gt;TZ.Eastern</title>
<path fill="none" stroke="#000000" d="M312.907,-114.906C324.703,-128.205 339.619,-147.307 348,-166.853 367.005,-211.174 350.139,-228.313 366,-273.853 370.089,-285.594 383.587,-314.732 393,-322.853 396.396,-325.783 400.183,-328.37 404.173,-330.652"/>
<polygon fill="#000000" stroke="#000000" points="402.654,-333.805 413.16,-335.173 405.8,-327.552 402.654,-333.805"/>
<text text-anchor="middle" x="370.5" y="-299.653" font-family="Times,serif" font-size="14.00">!</text>
</g>
<!-- CEN.West&#45;&gt;TZ.Mountain -->
<g id="edge10" class="edge"><title>CEN.West&#45;&gt;TZ.Mountain</title>
<path fill="none" stroke="#000000" d="M310.712,-78.8095C327.378,-61.244 354.47,-39.3006 375,-54.8533 398.553,-72.6957 379.044,-92.809 393,-118.853 402.692,-136.939 417.38,-154.488 430.285,-168.058"/>
<polygon fill="#000000" stroke="#000000" points="428.131,-170.861 437.626,-175.561 433.134,-165.966 428.131,-170.861"/>
<text text-anchor="middle" x="370.5" y="-58.6533" font-family="Times,serif" font-size="14.00">o</text>
</g>
<!-- CEN.West&#45;&gt;TZ.Central -->
<g id="edge11" class="edge"><title>CEN.West&#45;&gt;TZ.Central</title>
<path fill="none" stroke="#000000" d="M303.028,-78.7824C313.449,-56.4367 334.609,-19.4479 366,-3.85331 399.972,13.0239 429.605,-32.6136 445.367,-64.3054"/>
<polygon fill="#000000" stroke="#000000" points="442.34,-66.0883 449.803,-73.6084 448.658,-63.0756 442.34,-66.0883"/>
<text text-anchor="middle" x="370.5" y="-7.65331" font-family="Times,serif" font-size="14.00">!</text>
</g>
<!-- TZ.Eastern&#45;&gt;TZ.USA -->
<g id="edge6" class="edge"><title>TZ.Eastern&#45;&gt;TZ.USA</title>
<path fill="none" stroke="#000000" d="M497.824,-333.454C517.448,-326.606 541.416,-318.242 561.759,-311.143"/>
<polygon fill="#000000" stroke="#000000" points="563.132,-314.372 571.42,-307.772 560.825,-307.762 563.132,-314.372"/>
</g>
<!-- TZ.Mountain&#45;&gt;TZ.USA -->
<g id="edge7" class="edge"><title>TZ.Mountain&#45;&gt;TZ.USA</title>
<path fill="none" stroke="#000000" d="M485.217,-211.854C510.063,-229.194 547.688,-255.453 574.245,-273.987"/>
<polygon fill="#000000" stroke="#000000" points="572.245,-276.859 582.449,-279.712 576.251,-271.119 572.245,-276.859"/>
</g>
<!-- TZ.Pacific&#45;&gt;TZ.USA -->
<g id="edge5" class="edge"><title>TZ.Pacific&#45;&gt;TZ.USA</title>
<path fill="none" stroke="#000000" d="M512.602,-295.853C524.845,-295.853 537.894,-295.853 550.227,-295.853"/>
<polygon fill="#000000" stroke="#000000" points="550.384,-299.353 560.384,-295.853 550.384,-292.353 550.384,-299.353"/>
</g>
<!-- TZ.Central&#45;&gt;TZ.USA -->
<g id="edge8" class="edge"><title>TZ.Central&#45;&gt;TZ.USA</title>
<path fill="none" stroke="#000000" d="M476.353,-110.035C489.823,-124.853 508.837,-146.572 523.85,-166.853 548.965,-200.784 574.455,-242.411 590.137,-269.034"/>
<polygon fill="#000000" stroke="#000000" points="587.188,-270.924 595.258,-277.788 593.23,-267.389 587.188,-270.924"/>
</g>
<!-- Legend -->
<g id="node11" class="node"><title>Legend</title>
<polygon fill="white" stroke="black" points="109,-485.353 0,-485.353 0,-310.353 109,-310.353 109,-485.353"/>
<polygon fill="none" stroke="black" points="0.5,-459.853 0.5,-484.853 109.5,-484.853 109.5,-459.853 0.5,-459.853"/>
<text text-anchor="start" x="30.5" y="-468.653" font-family="Arial Black" font-size="14.00"> Nodes</text>
<polygon fill="#ccffcc" stroke="none" points="0.5,-434.853 0.5,-459.853 83.5,-459.853 83.5,-434.853 0.5,-434.853"/>
<polygon fill="none" stroke="black" points="0.5,-434.853 0.5,-459.853 83.5,-459.853 83.5,-434.853 0.5,-434.853"/>
<text text-anchor="start" x="27.5" y="-443.653" font-family="Helvetica,sans-Serif" font-size="14.00">CEN</text>
<polygon fill="none" stroke="black" points="83.5,-434.853 83.5,-459.853 109.5,-459.853 109.5,-434.853 83.5,-434.853"/>
<text text-anchor="start" x="92.5" y="-443.653" font-family="Helvetica,sans-Serif" font-size="14.00">5</text>
<polygon fill="#ffffcc" stroke="none" points="0.5,-409.853 0.5,-434.853 83.5,-434.853 83.5,-409.853 0.5,-409.853"/>
<polygon fill="none" stroke="black" points="0.5,-409.853 0.5,-434.853 83.5,-434.853 83.5,-409.853 0.5,-409.853"/>
<text text-anchor="start" x="33.5" y="-418.653" font-family="Helvetica,sans-Serif" font-size="14.00">TZ</text>
<polygon fill="none" stroke="black" points="83.5,-409.853 83.5,-434.853 109.5,-434.853 109.5,-409.853 83.5,-409.853"/>
<text text-anchor="start" x="92.5" y="-418.653" font-family="Helvetica,sans-Serif" font-size="14.00">5</text>
<polygon fill="none" stroke="black" points="0.5,-384.853 0.5,-409.853 109.5,-409.853 109.5,-384.853 0.5,-384.853"/>
<text text-anchor="start" x="29" y="-393.653" font-family="Arial Black" font-size="14.00"> Edges </text>
<polygon fill="none" stroke="black" points="0.5,-359.853 0.5,-384.853 83.5,-384.853 83.5,-359.853 0.5,-359.853"/>
<text text-anchor="start" x="8.5" y="-368.653" font-family="Helvetica,sans-Serif" font-size="14.00" fill="#000000">is_a (CEN)</text>
<polygon fill="none" stroke="black" points="83.5,-359.853 83.5,-384.853 109.5,-384.853 109.5,-359.853 83.5,-359.853"/>
<text text-anchor="start" x="92.5" y="-368.653" font-family="Helvetica,sans-Serif" font-size="14.00">4</text>
<polygon fill="none" stroke="black" points="0.5,-334.853 0.5,-359.853 83.5,-359.853 83.5,-334.853 0.5,-334.853"/>
<text text-anchor="start" x="14.5" y="-343.653" font-family="Helvetica,sans-Serif" font-size="14.00" fill="#000000">is_a (TZ)</text>
<polygon fill="none" stroke="black" points="83.5,-334.853 83.5,-359.853 109.5,-359.853 109.5,-334.853 83.5,-334.853"/>
<text text-anchor="start" x="92.5" y="-343.653" font-family="Helvetica,sans-Serif" font-size="14.00">4</text>
<polygon fill="none" stroke="black" points="0.5,-309.853 0.5,-334.853 83.5,-334.853 83.5,-309.853 0.5,-309.853"/>
<text text-anchor="start" x="5.5" y="-318.653" font-family="Helvetica,sans-Serif" font-size="14.00" fill="#aa00ff">articulations</text>
<polygon fill="none" stroke="black" points="83.5,-309.853 83.5,-334.853 109.5,-334.853 109.5,-309.853 83.5,-309.853"/>
<text text-anchor="start" x="88.5" y="-318.653" font-family="Helvetica,sans-Serif" font-size="14.00">12</text>
</g>
</g>
</svg>
